<svg width="2148" height="2149" xmlns="http://www.w3.org/2000/svg" xmlns:xlink="http://www.w3.org/1999/xlink" xml:space="preserve" overflow="hidden"><defs><filter id="fx0" x="-10%" y="-10%" width="120%" height="120%" filterUnits="userSpaceOnUse" primitiveUnits="userSpaceOnUse"><feComponentTransfer color-interpolation-filters="sRGB"><feFuncR type="discrete" tableValues="0 0"/><feFuncG type="discrete" tableValues="0 0"/><feFuncB type="discrete" tableValues="0 0"/><feFuncA type="linear" slope="0.4" intercept="0"/></feComponentTransfer><feGaussianBlur stdDeviation="7.63889 7.63889"/></filter><clipPath id="clip1"><rect x="1126" y="163" width="2148" height="2149"/></clipPath></defs><g clip-path="url(#clip1)" transform="translate(-1126 -163)"><path d="M1126 1237.5C1126 644.07 1606.85 163 2200 163 2793.15 163 3274 644.07 3274 1237.5 3274 1830.93 2793.15 2312 2200 2312 1606.85 2312 1126 1830.93 1126 1237.5Z" fill="#EEF3FF" fill-rule="evenodd"/><path d="M1877.06 764C1932.09 764 1976.69 810.648 1976.69 868.19 1976.69 896.962 1965.54 923.009 1947.51 941.865L1933 952.093 1950.26 970.178C1984.01 1018.37 2012.72 1098.87 2033 1200.2L2040.17 1242.32 2359.83 1242.32 2367 1200.2C2387.28 1098.87 2415.99 1018.37 2449.74 970.178L2467 952.093 2452.49 941.865C2434.46 923.009 2423.31 896.962 2423.31 868.19 2423.31 810.648 2467.91 764 2522.94 764 2577.97 764 2622.58 810.648 2622.58 868.19 2622.58 896.962 2611.42 923.009 2593.39 941.865L2578.89 952.093 2596.14 970.178C2663.64 1066.56 2711 1292.19 2711 1555.16 2711 1727.94 2571.11 1868 2398.54 1868L2001.46 1868C1828.89 1868 1689 1727.94 1689 1555.16 1689 1292.19 1736.36 1066.56 1803.86 970.178L1821.11 952.093 1806.61 941.865C1788.58 923.009 1777.43 896.962 1777.43 868.19 1777.43 810.648 1822.03 764 1877.06 764Z" fill="#8D86EE" fill-rule="evenodd"/><path d="M2196.5 607C2262.48 607 2315.97 662.895 2315.97 731.845 2315.97 766.32 2302.6 797.531 2280.98 820.124L2263.58 832.38 2284.27 854.05C2365.21 969.535 2422 1239.89 2422 1555L1971 1555C1971 1239.89 2027.79 969.535 2108.73 854.05L2129.42 832.38 2112.02 820.124C2090.4 797.531 2077.03 766.32 2077.03 731.845 2077.03 662.895 2130.52 607 2196.5 607Z" fill="#5045E5" fill-rule="evenodd"/><g filter="url(#fx0)" transform="translate(1740 1268)"><g><path d="M24.4601 287C24.4601 141.661 142.281 23.84 287.62 23.84L632.38 23.84C777.719 23.84 895.54 141.661 895.54 287L895.54 287C895.54 432.339 777.719 550.16 632.38 550.16L287.62 550.16C142.281 550.16 24.4601 432.339 24.4601 287Z" fill="#EEF3FF" fill-rule="evenodd"/></g></g><path d="M1773 1555C1773 1412.51 1888.51 1297 2031 1297L2369 1297C2511.49 1297 2627 1412.51 2627 1555L2627 1555C2627 1697.49 2511.49 1813 2369 1813L2031 1813C1888.51 1813 1773 1697.49 1773 1555Z" fill="#EEF3FF" fill-rule="evenodd"/><path d="M2228.04 1442.4C2232.74 1432.33 2244.71 1427.97 2254.78 1432.67L2476.25 1535.94C2486.32 1540.64 2490.68 1552.61 2485.98 1562.68L2485.98 1562.68C2481.29 1572.75 2469.31 1577.11 2459.24 1572.41L2237.77 1469.14C2227.7 1464.45 2223.35 1452.47 2228.04 1442.4Z" fill="#302C81" fill-rule="evenodd"/><path d="M2305.06 1632.99C2300.37 1622.92 2304.72 1610.95 2314.8 1606.25L2459.24 1538.89C2469.31 1534.2 2481.29 1538.55 2485.98 1548.63L2485.98 1548.63C2490.68 1558.7 2486.32 1570.67 2476.25 1575.36L2331.8 1642.72C2321.73 1647.42 2309.76 1643.06 2305.06 1632.99Z" fill="#302C81" fill-rule="evenodd"/><path d="M2170.27 1650.98C2165.57 1661.05 2153.6 1665.41 2143.53 1660.71L1923.67 1558.19C1913.6 1553.49 1909.24 1541.52 1913.94 1531.45L1913.94 1531.45C1918.63 1521.38 1930.6 1517.02 1940.67 1521.72L2160.54 1624.24C2170.61 1628.94 2174.97 1640.91 2170.27 1650.98Z" fill="#302C81" fill-rule="evenodd"/><path d="M2094.85 1459.95C2099.55 1470.02 2095.19 1482 2085.12 1486.69L1940.68 1554.05C1930.6 1558.75 1918.63 1554.39 1913.94 1544.32L1913.94 1544.32C1909.24 1534.25 1913.6 1522.27 1923.67 1517.58L2068.12 1450.22C2078.19 1445.52 2090.16 1449.88 2094.86 1459.95Z" fill="#302C81" fill-rule="evenodd"/><path d="M2266.44 1372.35C2277.34 1376.32 2282.97 1388.39 2279 1399.3L2160.43 1725.07C2156.46 1735.98 2144.39 1741.61 2133.48 1737.64L2133.48 1737.64C2122.57 1733.66 2116.95 1721.6 2120.92 1710.69L2239.49 1384.92C2243.46 1374.01 2255.53 1368.38 2266.44 1372.35Z" fill="#302C81" fill-rule="evenodd"/></g></svg>